<mxfile host="Electron" agent="Mozilla/5.0 (Windows NT 10.0; Win64; x64) AppleWebKit/537.36 (KHTML, like Gecko) draw.io/24.7.5 Chrome/126.0.6478.183 Electron/31.3.0 Safari/537.36" version="24.7.5" pages="4">
  <diagram name="Page-1" id="MCbX96N7kbB1ix4g60EX">
    <mxGraphModel dx="2049" dy="1194" grid="1" gridSize="10" guides="1" tooltips="1" connect="1" arrows="1" fold="1" page="1" pageScale="1" pageWidth="1654" pageHeight="1169" math="0" shadow="0">
      <root>
        <mxCell id="0" />
        <mxCell id="1" parent="0" />
        <mxCell id="UrjzF82YmoTkrB0IV3mD-1" value="&lt;div&gt;header:&lt;/div&gt;&lt;div&gt;&amp;nbsp; stamp:&lt;/div&gt;&lt;div&gt;&amp;nbsp; &amp;nbsp; sec: 1748952095&lt;/div&gt;&lt;div&gt;&amp;nbsp; &amp;nbsp; nanosec: 514970932&lt;/div&gt;&lt;div&gt;&amp;nbsp; frame_id: base_footprint&lt;/div&gt;&lt;div&gt;status:&lt;/div&gt;&lt;div&gt;&amp;nbsp; status: 2&lt;/div&gt;&lt;div&gt;&amp;nbsp; service: 0&lt;/div&gt;&lt;div&gt;latitude: 36.114005953987785&lt;/div&gt;&lt;div&gt;longitude: 128.41844551680896&lt;/div&gt;&lt;div&gt;altitude: 46.462199999999996&lt;/div&gt;&lt;div&gt;position_covariance:&lt;/div&gt;&lt;div&gt;- 0.1462862599958599&lt;/div&gt;&lt;div&gt;- -2.7955305664052596e-09&lt;/div&gt;&lt;div&gt;- 0.0&lt;/div&gt;&lt;div&gt;- -2.7955305662539315e-09&lt;/div&gt;&lt;div&gt;- 0.14604959792445335&lt;/div&gt;&lt;div&gt;- 0.0&lt;/div&gt;&lt;div&gt;- 0.0&lt;/div&gt;&lt;div&gt;- 0.0&lt;/div&gt;&lt;div&gt;- 5.4011383472419314e-05&lt;/div&gt;&lt;div&gt;position_covariance_type: 3&lt;/div&gt;" style="rounded=0;whiteSpace=wrap;html=1;" parent="1" vertex="1">
          <mxGeometry x="120" y="320" width="160" height="480" as="geometry" />
        </mxCell>
        <mxCell id="UrjzF82YmoTkrB0IV3mD-2" value="Begin" style="rounded=1;whiteSpace=wrap;html=1;" parent="1" vertex="1">
          <mxGeometry x="140" y="240" width="120" height="60" as="geometry" />
        </mxCell>
        <mxCell id="UrjzF82YmoTkrB0IV3mD-3" value="&lt;div&gt;header:&lt;/div&gt;&lt;div&gt;&amp;nbsp; stamp:&lt;/div&gt;&lt;div&gt;&amp;nbsp; &amp;nbsp; sec: 1748952101&lt;/div&gt;&lt;div&gt;&amp;nbsp; &amp;nbsp; nanosec: 148290186&lt;/div&gt;&lt;div&gt;&amp;nbsp; frame_id: base_footprint&lt;/div&gt;&lt;div&gt;status:&lt;/div&gt;&lt;div&gt;&amp;nbsp; status: 2&lt;/div&gt;&lt;div&gt;&amp;nbsp; service: 0&lt;/div&gt;&lt;div&gt;latitude: 36.11400615610248&lt;/div&gt;&lt;div&gt;longitude: 128.41844355130064&lt;/div&gt;&lt;div&gt;altitude: 46.462199999999996&lt;/div&gt;&lt;div&gt;position_covariance:&lt;/div&gt;&lt;div&gt;- 0.09293157300455919&lt;/div&gt;&lt;div&gt;- 1.2953373353831338e-08&lt;/div&gt;&lt;div&gt;- 0.0&lt;/div&gt;&lt;div&gt;- 1.2953373353911267e-08&lt;/div&gt;&lt;div&gt;- 0.09263964184444179&lt;/div&gt;&lt;div&gt;- 0.0&lt;/div&gt;&lt;div&gt;- 0.0&lt;/div&gt;&lt;div&gt;- 0.0&lt;/div&gt;&lt;div&gt;- 9.06564466257639e-05&lt;/div&gt;&lt;div&gt;position_covariance_type: 3&lt;/div&gt;" style="rounded=0;whiteSpace=wrap;html=1;" parent="1" vertex="1">
          <mxGeometry x="360" y="320" width="160" height="480" as="geometry" />
        </mxCell>
        <mxCell id="UrjzF82YmoTkrB0IV3mD-4" value="Start Manual Moving" style="rounded=1;whiteSpace=wrap;html=1;" parent="1" vertex="1">
          <mxGeometry x="380" y="240" width="120" height="60" as="geometry" />
        </mxCell>
        <mxCell id="UrjzF82YmoTkrB0IV3mD-5" value="&lt;div&gt;header:&lt;/div&gt;&lt;div&gt;&amp;nbsp; stamp:&lt;/div&gt;&lt;div&gt;&amp;nbsp; &amp;nbsp; sec: 1748952140&lt;/div&gt;&lt;div&gt;&amp;nbsp; &amp;nbsp; nanosec: 2547974&lt;/div&gt;&lt;div&gt;&amp;nbsp; frame_id: base_footprint&lt;/div&gt;&lt;div&gt;status:&lt;/div&gt;&lt;div&gt;&amp;nbsp; status: 2&lt;/div&gt;&lt;div&gt;&amp;nbsp; service: 0&lt;/div&gt;&lt;div&gt;latitude: 36.11403369504778&lt;/div&gt;&lt;div&gt;longitude: 128.41834785466844&lt;/div&gt;&lt;div&gt;altitude: 46.462199999999996&lt;/div&gt;&lt;div&gt;position_covariance:&lt;/div&gt;&lt;div&gt;- 0.05436482079245131&lt;/div&gt;&lt;div&gt;- 1.3409542169024836e-09&lt;/div&gt;&lt;div&gt;- 0.0&lt;/div&gt;&lt;div&gt;- 1.3409542168410895e-09&lt;/div&gt;&lt;div&gt;- 0.054297293711033014&lt;/div&gt;&lt;div&gt;- 0.0&lt;/div&gt;&lt;div&gt;- 0.0&lt;/div&gt;&lt;div&gt;- 0.0&lt;/div&gt;&lt;div&gt;- 9.81855644434325e-07&lt;/div&gt;&lt;div&gt;position_covariance_type: 3&lt;/div&gt;" style="rounded=0;whiteSpace=wrap;html=1;" parent="1" vertex="1">
          <mxGeometry x="600" y="320" width="160" height="480" as="geometry" />
        </mxCell>
        <mxCell id="UrjzF82YmoTkrB0IV3mD-9" style="edgeStyle=orthogonalEdgeStyle;rounded=0;orthogonalLoop=1;jettySize=auto;html=1;exitX=1;exitY=0.5;exitDx=0;exitDy=0;" parent="1" source="UrjzF82YmoTkrB0IV3mD-6" edge="1">
          <mxGeometry relative="1" as="geometry">
            <mxPoint x="800" y="270" as="targetPoint" />
          </mxGeometry>
        </mxCell>
        <mxCell id="UrjzF82YmoTkrB0IV3mD-6" value="Stop Manual Moving" style="rounded=1;whiteSpace=wrap;html=1;" parent="1" vertex="1">
          <mxGeometry x="620" y="240" width="120" height="60" as="geometry" />
        </mxCell>
        <mxCell id="UrjzF82YmoTkrB0IV3mD-8" value="&lt;div&gt;header:&lt;/div&gt;&lt;div&gt;&amp;nbsp; stamp:&lt;/div&gt;&lt;div&gt;&amp;nbsp; &amp;nbsp; sec: 1748952173&lt;/div&gt;&lt;div&gt;&amp;nbsp; &amp;nbsp; nanosec: 848257663&lt;/div&gt;&lt;div&gt;&amp;nbsp; frame_id: base_footprint&lt;/div&gt;&lt;div&gt;status:&lt;/div&gt;&lt;div&gt;&amp;nbsp; status: 2&lt;/div&gt;&lt;div&gt;&amp;nbsp; service: 0&lt;/div&gt;&lt;div&gt;latitude: 36.11403524490441&lt;/div&gt;&lt;div&gt;longitude: 128.4183341161192&lt;/div&gt;&lt;div&gt;altitude: 46.462199999999996&lt;/div&gt;&lt;div&gt;position_covariance:&lt;/div&gt;&lt;div&gt;- 0.08946920449753971&lt;/div&gt;&lt;div&gt;- 9.234849571309326e-07&lt;/div&gt;&lt;div&gt;- 0.0&lt;/div&gt;&lt;div&gt;- 9.234849571309555e-07&lt;/div&gt;&lt;div&gt;- 0.08942846955226184&lt;/div&gt;&lt;div&gt;- 0.0&lt;/div&gt;&lt;div&gt;- 0.0&lt;/div&gt;&lt;div&gt;- 0.0&lt;/div&gt;&lt;div&gt;- 8.812924565433715e-05&lt;/div&gt;&lt;div&gt;position_covariance_type: 3&lt;/div&gt;" style="rounded=0;whiteSpace=wrap;html=1;" parent="1" vertex="1">
          <mxGeometry x="1000" y="320" width="160" height="480" as="geometry" />
        </mxCell>
        <mxCell id="UrjzF82YmoTkrB0IV3mD-10" value="&amp;nbsp;Standby for automatic navigation" style="rounded=1;whiteSpace=wrap;html=1;" parent="1" vertex="1">
          <mxGeometry x="800" y="240" width="120" height="60" as="geometry" />
        </mxCell>
        <mxCell id="UrjzF82YmoTkrB0IV3mD-11" value="Start auto navigation" style="rounded=1;whiteSpace=wrap;html=1;" parent="1" vertex="1">
          <mxGeometry x="1020" y="240" width="120" height="60" as="geometry" />
        </mxCell>
        <mxCell id="UrjzF82YmoTkrB0IV3mD-12" value="&lt;div&gt;header:&lt;/div&gt;&lt;div&gt;&amp;nbsp; stamp:&lt;/div&gt;&lt;div&gt;&amp;nbsp; &amp;nbsp; sec: 1748952183&lt;/div&gt;&lt;div&gt;&amp;nbsp; &amp;nbsp; nanosec: 948473431&lt;/div&gt;&lt;div&gt;&amp;nbsp; frame_id: base_footprint&lt;/div&gt;&lt;div&gt;status:&lt;/div&gt;&lt;div&gt;&amp;nbsp; status: 2&lt;/div&gt;&lt;div&gt;&amp;nbsp; service: 0&lt;/div&gt;&lt;div&gt;latitude: 36.114035673055845&lt;/div&gt;&lt;div&gt;longitude: 128.41830360303496&lt;/div&gt;&lt;div&gt;altitude: 46.462199999999996&lt;/div&gt;&lt;div&gt;position_covariance:&lt;/div&gt;&lt;div&gt;- 0.10292876300284348&lt;/div&gt;&lt;div&gt;- -4.0017550553476665e-07&lt;/div&gt;&lt;div&gt;- 0.0&lt;/div&gt;&lt;div&gt;- -4.0017550553469524e-07&lt;/div&gt;&lt;div&gt;- 0.1028753460495512&lt;/div&gt;&lt;div&gt;- 0.0&lt;/div&gt;&lt;div&gt;- 0.0&lt;/div&gt;&lt;div&gt;- 0.0&lt;/div&gt;&lt;div&gt;- 6.969681710099618e-07&lt;/div&gt;&lt;div&gt;position_covariance_type: 3&lt;/div&gt;" style="rounded=0;whiteSpace=wrap;html=1;" parent="1" vertex="1">
          <mxGeometry x="360" y="1040" width="160" height="480" as="geometry" />
        </mxCell>
        <mxCell id="UrjzF82YmoTkrB0IV3mD-13" value="First" style="rounded=1;whiteSpace=wrap;html=1;" parent="1" vertex="1">
          <mxGeometry x="380" y="960" width="120" height="60" as="geometry" />
        </mxCell>
        <mxCell id="UrjzF82YmoTkrB0IV3mD-14" value="header:&#xa;  stamp:&#xa;    sec: 1748952201&#xa;    nanosec: 422781881&#xa;  frame_id: base_footprint&#xa;status:&#xa;  status: 2&#xa;  service: 0&#xa;latitude: 36.114037052546394&#xa;longitude: 128.41826355116552&#xa;altitude: 46.462199999999996&#xa;position_covariance:&#xa;- 0.07844074865301714&#xa;- -1.5973855576552917e-09&#xa;- 0.0&#xa;- -1.5973855576240197e-09&#xa;- 0.0783845737820366&#xa;- 0.0&#xa;- 0.0&#xa;- 0.0&#xa;- 9.868187300971022e-07&#xa;position_covariance_type: 3" style="rounded=0;whiteSpace=wrap;html=1;" parent="1" vertex="1">
          <mxGeometry x="680" y="1040" width="160" height="480" as="geometry" />
        </mxCell>
        <mxCell id="UrjzF82YmoTkrB0IV3mD-15" value="End" style="rounded=1;whiteSpace=wrap;html=1;" parent="1" vertex="1">
          <mxGeometry x="700" y="960" width="120" height="60" as="geometry" />
        </mxCell>
        <mxCell id="SfUzMIfv1IW-XIUy1Q8f-1" style="edgeStyle=orthogonalEdgeStyle;rounded=0;orthogonalLoop=1;jettySize=auto;html=1;exitX=0;exitY=0.5;exitDx=0;exitDy=0;" edge="1" parent="1" source="UrjzF82YmoTkrB0IV3mD-16">
          <mxGeometry relative="1" as="geometry">
            <mxPoint x="1240" y="540" as="targetPoint" />
          </mxGeometry>
        </mxCell>
        <mxCell id="UrjzF82YmoTkrB0IV3mD-16" value="header:&#xa;  stamp:&#xa;    sec: 1748952201&#xa;    nanosec: 422781881&#xa;  frame_id: base_footprint&#xa;status:&#xa;  status: 2&#xa;  service: 0&#xa;latitude: 36.114037052546394&#xa;longitude: 128.41826355116552&#xa;altitude: 46.462199999999996&#xa;position_covariance:&#xa;- 0.07844074865301714&#xa;- -1.5973855576552917e-09&#xa;- 0.0&#xa;- -1.5973855576240197e-09&#xa;- 0.0783845737820366&#xa;- 0.0&#xa;- 0.0&#xa;- 0.0&#xa;- 9.868187300971022e-07&#xa;position_covariance_type: 3" style="rounded=0;whiteSpace=wrap;html=1;" parent="1" vertex="1">
          <mxGeometry x="1320" y="320" width="160" height="480" as="geometry" />
        </mxCell>
        <mxCell id="UrjzF82YmoTkrB0IV3mD-17" value="End auto navigation" style="rounded=1;whiteSpace=wrap;html=1;" parent="1" vertex="1">
          <mxGeometry x="1340" y="240" width="120" height="60" as="geometry" />
        </mxCell>
      </root>
    </mxGraphModel>
  </diagram>
  <diagram id="w8aqMth8Xz54Ai8PEgBj" name="Page-2">
    <mxGraphModel dx="1837" dy="2409" grid="1" gridSize="10" guides="1" tooltips="1" connect="1" arrows="1" fold="1" page="1" pageScale="1" pageWidth="1654" pageHeight="1169" math="0" shadow="0">
      <root>
        <mxCell id="0" />
        <mxCell id="1" parent="0" />
        <mxCell id="rGOL3PYCKRUh_CN5jVpd-112" value="" style="group" parent="1" vertex="1" connectable="0">
          <mxGeometry x="80" y="240" width="580" height="800" as="geometry" />
        </mxCell>
        <mxCell id="rGOL3PYCKRUh_CN5jVpd-79" style="edgeStyle=orthogonalEdgeStyle;rounded=0;orthogonalLoop=1;jettySize=auto;html=1;exitX=0.5;exitY=1;exitDx=0;exitDy=0;entryX=0.5;entryY=0;entryDx=0;entryDy=0;" parent="rGOL3PYCKRUh_CN5jVpd-112" source="rGOL3PYCKRUh_CN5jVpd-1" target="rGOL3PYCKRUh_CN5jVpd-23" edge="1">
          <mxGeometry relative="1" as="geometry" />
        </mxCell>
        <mxCell id="rGOL3PYCKRUh_CN5jVpd-1" value="rs:Standby&lt;div&gt;mi:Standby&lt;/div&gt;" style="rounded=1;whiteSpace=wrap;html=1;" parent="rGOL3PYCKRUh_CN5jVpd-112" vertex="1">
          <mxGeometry x="20" width="160" height="80" as="geometry" />
        </mxCell>
        <mxCell id="rGOL3PYCKRUh_CN5jVpd-98" style="edgeStyle=orthogonalEdgeStyle;rounded=0;orthogonalLoop=1;jettySize=auto;html=1;exitX=0.5;exitY=1;exitDx=0;exitDy=0;entryX=0.5;entryY=0;entryDx=0;entryDy=0;" parent="rGOL3PYCKRUh_CN5jVpd-112" source="rGOL3PYCKRUh_CN5jVpd-22" target="rGOL3PYCKRUh_CN5jVpd-86" edge="1">
          <mxGeometry relative="1" as="geometry" />
        </mxCell>
        <mxCell id="rGOL3PYCKRUh_CN5jVpd-22" value="rs:Normal Driving&lt;div&gt;mi:Started-&amp;gt;OnProgress&lt;/div&gt;" style="rounded=1;whiteSpace=wrap;html=1;" parent="rGOL3PYCKRUh_CN5jVpd-112" vertex="1">
          <mxGeometry x="20" y="240" width="160" height="80" as="geometry" />
        </mxCell>
        <mxCell id="rGOL3PYCKRUh_CN5jVpd-24" value="No" style="edgeStyle=orthogonalEdgeStyle;rounded=0;orthogonalLoop=1;jettySize=auto;html=1;exitX=0;exitY=0.5;exitDx=0;exitDy=0;entryX=0;entryY=0.5;entryDx=0;entryDy=0;fillColor=#a20025;strokeColor=#6F0000;" parent="rGOL3PYCKRUh_CN5jVpd-112" source="rGOL3PYCKRUh_CN5jVpd-23" target="rGOL3PYCKRUh_CN5jVpd-1" edge="1">
          <mxGeometry relative="1" as="geometry" />
        </mxCell>
        <mxCell id="rGOL3PYCKRUh_CN5jVpd-26" value="Yes" style="edgeStyle=orthogonalEdgeStyle;rounded=0;orthogonalLoop=1;jettySize=auto;html=1;exitX=0.5;exitY=1;exitDx=0;exitDy=0;entryX=0.5;entryY=0;entryDx=0;entryDy=0;fillColor=#60a917;strokeColor=#2D7600;" parent="rGOL3PYCKRUh_CN5jVpd-112" source="rGOL3PYCKRUh_CN5jVpd-23" target="rGOL3PYCKRUh_CN5jVpd-22" edge="1">
          <mxGeometry relative="1" as="geometry" />
        </mxCell>
        <mxCell id="rGOL3PYCKRUh_CN5jVpd-23" value="Task ?" style="rhombus;whiteSpace=wrap;html=1;" parent="rGOL3PYCKRUh_CN5jVpd-112" vertex="1">
          <mxGeometry x="60" y="120" width="80" height="80" as="geometry" />
        </mxCell>
        <mxCell id="rGOL3PYCKRUh_CN5jVpd-38" value="Yes" style="edgeStyle=orthogonalEdgeStyle;rounded=0;orthogonalLoop=1;jettySize=auto;html=1;exitX=1;exitY=0.5;exitDx=0;exitDy=0;entryX=0;entryY=0.5;entryDx=0;entryDy=0;fillColor=#60a917;strokeColor=#2D7600;" parent="rGOL3PYCKRUh_CN5jVpd-112" source="rGOL3PYCKRUh_CN5jVpd-32" target="rGOL3PYCKRUh_CN5jVpd-37" edge="1">
          <mxGeometry relative="1" as="geometry" />
        </mxCell>
        <mxCell id="rGOL3PYCKRUh_CN5jVpd-105" value="No" style="edgeStyle=orthogonalEdgeStyle;rounded=0;orthogonalLoop=1;jettySize=auto;html=1;exitX=0.5;exitY=1;exitDx=0;exitDy=0;fillColor=#a20025;strokeColor=#6F0000;" parent="rGOL3PYCKRUh_CN5jVpd-112" source="rGOL3PYCKRUh_CN5jVpd-32" target="rGOL3PYCKRUh_CN5jVpd-85" edge="1">
          <mxGeometry relative="1" as="geometry" />
        </mxCell>
        <mxCell id="rGOL3PYCKRUh_CN5jVpd-32" value="Obstacle ?" style="rhombus;whiteSpace=wrap;html=1;" parent="rGOL3PYCKRUh_CN5jVpd-112" vertex="1">
          <mxGeometry x="60" y="600" width="80" height="80" as="geometry" />
        </mxCell>
        <mxCell id="rGOL3PYCKRUh_CN5jVpd-42" style="edgeStyle=orthogonalEdgeStyle;rounded=0;orthogonalLoop=1;jettySize=auto;html=1;exitX=1;exitY=0.5;exitDx=0;exitDy=0;entryX=0;entryY=0.5;entryDx=0;entryDy=0;" parent="rGOL3PYCKRUh_CN5jVpd-112" source="rGOL3PYCKRUh_CN5jVpd-37" target="rGOL3PYCKRUh_CN5jVpd-40" edge="1">
          <mxGeometry relative="1" as="geometry" />
        </mxCell>
        <mxCell id="rGOL3PYCKRUh_CN5jVpd-37" value="rs:Obstacle Detected&lt;div&gt;mi:OnProgress&lt;/div&gt;" style="rounded=1;whiteSpace=wrap;html=1;" parent="rGOL3PYCKRUh_CN5jVpd-112" vertex="1">
          <mxGeometry x="220" y="600" width="160" height="80" as="geometry" />
        </mxCell>
        <mxCell id="rGOL3PYCKRUh_CN5jVpd-45" value="No" style="edgeStyle=orthogonalEdgeStyle;rounded=0;orthogonalLoop=1;jettySize=auto;html=1;exitX=0.5;exitY=1;exitDx=0;exitDy=0;entryX=0.5;entryY=1;entryDx=0;entryDy=0;fillColor=#a20025;strokeColor=#6F0000;" parent="rGOL3PYCKRUh_CN5jVpd-112" source="rGOL3PYCKRUh_CN5jVpd-40" target="rGOL3PYCKRUh_CN5jVpd-37" edge="1">
          <mxGeometry relative="1" as="geometry" />
        </mxCell>
        <mxCell id="rGOL3PYCKRUh_CN5jVpd-101" value="Yes" style="edgeStyle=orthogonalEdgeStyle;rounded=0;orthogonalLoop=1;jettySize=auto;html=1;exitX=1;exitY=0.5;exitDx=0;exitDy=0;entryX=1;entryY=0.5;entryDx=0;entryDy=0;fillColor=#60a917;strokeColor=#2D7600;" parent="rGOL3PYCKRUh_CN5jVpd-112" source="rGOL3PYCKRUh_CN5jVpd-40" target="rGOL3PYCKRUh_CN5jVpd-22" edge="1">
          <mxGeometry relative="1" as="geometry" />
        </mxCell>
        <mxCell id="rGOL3PYCKRUh_CN5jVpd-40" value="Cleared ?" style="rhombus;whiteSpace=wrap;html=1;" parent="rGOL3PYCKRUh_CN5jVpd-112" vertex="1">
          <mxGeometry x="420" y="600" width="80" height="80" as="geometry" />
        </mxCell>
        <mxCell id="rGOL3PYCKRUh_CN5jVpd-50" value="Yes" style="edgeStyle=orthogonalEdgeStyle;rounded=0;orthogonalLoop=1;jettySize=auto;html=1;exitX=1;exitY=0.5;exitDx=0;exitDy=0;fillColor=#60a917;strokeColor=#2D7600;" parent="rGOL3PYCKRUh_CN5jVpd-112" source="rGOL3PYCKRUh_CN5jVpd-47" target="rGOL3PYCKRUh_CN5jVpd-49" edge="1">
          <mxGeometry relative="1" as="geometry" />
        </mxCell>
        <mxCell id="rGOL3PYCKRUh_CN5jVpd-106" value="No" style="edgeStyle=orthogonalEdgeStyle;rounded=0;orthogonalLoop=1;jettySize=auto;html=1;exitX=0.5;exitY=1;exitDx=0;exitDy=0;entryX=0.5;entryY=0;entryDx=0;entryDy=0;fillColor=#a20025;strokeColor=#6F0000;" parent="rGOL3PYCKRUh_CN5jVpd-112" source="rGOL3PYCKRUh_CN5jVpd-47" target="rGOL3PYCKRUh_CN5jVpd-32" edge="1">
          <mxGeometry relative="1" as="geometry" />
        </mxCell>
        <mxCell id="rGOL3PYCKRUh_CN5jVpd-47" value="Failure ?" style="rhombus;whiteSpace=wrap;html=1;" parent="rGOL3PYCKRUh_CN5jVpd-112" vertex="1">
          <mxGeometry x="60" y="480" width="80" height="80" as="geometry" />
        </mxCell>
        <mxCell id="rGOL3PYCKRUh_CN5jVpd-52" style="edgeStyle=orthogonalEdgeStyle;rounded=0;orthogonalLoop=1;jettySize=auto;html=1;exitX=1;exitY=0.5;exitDx=0;exitDy=0;entryX=0;entryY=0.5;entryDx=0;entryDy=0;" parent="rGOL3PYCKRUh_CN5jVpd-112" source="rGOL3PYCKRUh_CN5jVpd-49" target="rGOL3PYCKRUh_CN5jVpd-51" edge="1">
          <mxGeometry relative="1" as="geometry" />
        </mxCell>
        <mxCell id="rGOL3PYCKRUh_CN5jVpd-49" value="rs:Driving Failure&lt;div&gt;mi:Failed&lt;/div&gt;" style="rounded=1;whiteSpace=wrap;html=1;" parent="rGOL3PYCKRUh_CN5jVpd-112" vertex="1">
          <mxGeometry x="220" y="480" width="160" height="80" as="geometry" />
        </mxCell>
        <mxCell id="rGOL3PYCKRUh_CN5jVpd-54" value="No" style="edgeStyle=orthogonalEdgeStyle;rounded=0;orthogonalLoop=1;jettySize=auto;html=1;exitX=0.5;exitY=1;exitDx=0;exitDy=0;entryX=0.5;entryY=1;entryDx=0;entryDy=0;fillColor=#a20025;strokeColor=#6F0000;" parent="rGOL3PYCKRUh_CN5jVpd-112" source="rGOL3PYCKRUh_CN5jVpd-51" target="rGOL3PYCKRUh_CN5jVpd-49" edge="1">
          <mxGeometry relative="1" as="geometry" />
        </mxCell>
        <mxCell id="rGOL3PYCKRUh_CN5jVpd-99" value="Yes" style="edgeStyle=orthogonalEdgeStyle;rounded=0;orthogonalLoop=1;jettySize=auto;html=1;exitX=0.5;exitY=0;exitDx=0;exitDy=0;entryX=1;entryY=0.5;entryDx=0;entryDy=0;fillColor=#60a917;strokeColor=#2D7600;" parent="rGOL3PYCKRUh_CN5jVpd-112" source="rGOL3PYCKRUh_CN5jVpd-51" target="rGOL3PYCKRUh_CN5jVpd-1" edge="1">
          <mxGeometry relative="1" as="geometry" />
        </mxCell>
        <mxCell id="rGOL3PYCKRUh_CN5jVpd-51" value="Fixed ?" style="rhombus;whiteSpace=wrap;html=1;" parent="rGOL3PYCKRUh_CN5jVpd-112" vertex="1">
          <mxGeometry x="420" y="480" width="80" height="80" as="geometry" />
        </mxCell>
        <mxCell id="rGOL3PYCKRUh_CN5jVpd-109" value="Yes" style="edgeStyle=orthogonalEdgeStyle;rounded=0;orthogonalLoop=1;jettySize=auto;html=1;exitX=1;exitY=0.5;exitDx=0;exitDy=0;entryX=0;entryY=0.5;entryDx=0;entryDy=0;fillColor=#008a00;strokeColor=#005700;" parent="rGOL3PYCKRUh_CN5jVpd-112" source="rGOL3PYCKRUh_CN5jVpd-85" target="rGOL3PYCKRUh_CN5jVpd-108" edge="1">
          <mxGeometry relative="1" as="geometry" />
        </mxCell>
        <mxCell id="rGOL3PYCKRUh_CN5jVpd-111" value="No" style="edgeStyle=orthogonalEdgeStyle;rounded=0;orthogonalLoop=1;jettySize=auto;html=1;exitX=0;exitY=0.5;exitDx=0;exitDy=0;entryX=0;entryY=0.5;entryDx=0;entryDy=0;fillColor=#a20025;strokeColor=#6F0000;" parent="rGOL3PYCKRUh_CN5jVpd-112" source="rGOL3PYCKRUh_CN5jVpd-85" target="rGOL3PYCKRUh_CN5jVpd-22" edge="1">
          <mxGeometry relative="1" as="geometry">
            <Array as="points">
              <mxPoint y="760" />
              <mxPoint y="280" />
            </Array>
          </mxGeometry>
        </mxCell>
        <mxCell id="rGOL3PYCKRUh_CN5jVpd-85" value="Complete ?" style="rhombus;whiteSpace=wrap;html=1;" parent="rGOL3PYCKRUh_CN5jVpd-112" vertex="1">
          <mxGeometry x="60" y="720" width="80" height="80" as="geometry" />
        </mxCell>
        <mxCell id="rGOL3PYCKRUh_CN5jVpd-93" value="Yes" style="edgeStyle=orthogonalEdgeStyle;rounded=0;orthogonalLoop=1;jettySize=auto;html=1;exitX=1;exitY=0.5;exitDx=0;exitDy=0;entryX=0;entryY=0.5;entryDx=0;entryDy=0;fillColor=#008a00;strokeColor=#005700;" parent="rGOL3PYCKRUh_CN5jVpd-112" source="rGOL3PYCKRUh_CN5jVpd-86" target="rGOL3PYCKRUh_CN5jVpd-92" edge="1">
          <mxGeometry relative="1" as="geometry" />
        </mxCell>
        <mxCell id="rGOL3PYCKRUh_CN5jVpd-107" value="No" style="edgeStyle=orthogonalEdgeStyle;rounded=0;orthogonalLoop=1;jettySize=auto;html=1;exitX=0.5;exitY=1;exitDx=0;exitDy=0;entryX=0.5;entryY=0;entryDx=0;entryDy=0;fillColor=#a20025;strokeColor=#6F0000;" parent="rGOL3PYCKRUh_CN5jVpd-112" source="rGOL3PYCKRUh_CN5jVpd-86" target="rGOL3PYCKRUh_CN5jVpd-47" edge="1">
          <mxGeometry relative="1" as="geometry" />
        </mxCell>
        <mxCell id="rGOL3PYCKRUh_CN5jVpd-86" value="Cancelled ?" style="rhombus;whiteSpace=wrap;html=1;" parent="rGOL3PYCKRUh_CN5jVpd-112" vertex="1">
          <mxGeometry x="60" y="360" width="80" height="80" as="geometry" />
        </mxCell>
        <mxCell id="rGOL3PYCKRUh_CN5jVpd-97" style="edgeStyle=orthogonalEdgeStyle;rounded=0;orthogonalLoop=1;jettySize=auto;html=1;exitX=0.5;exitY=0;exitDx=0;exitDy=0;entryX=1;entryY=0.75;entryDx=0;entryDy=0;" parent="rGOL3PYCKRUh_CN5jVpd-112" source="rGOL3PYCKRUh_CN5jVpd-92" target="rGOL3PYCKRUh_CN5jVpd-1" edge="1">
          <mxGeometry relative="1" as="geometry" />
        </mxCell>
        <mxCell id="rGOL3PYCKRUh_CN5jVpd-92" value="rs:Cancelled&lt;div&gt;mi:Cancelled&lt;/div&gt;" style="rounded=1;whiteSpace=wrap;html=1;" parent="rGOL3PYCKRUh_CN5jVpd-112" vertex="1">
          <mxGeometry x="220" y="360" width="160" height="80" as="geometry" />
        </mxCell>
        <mxCell id="rGOL3PYCKRUh_CN5jVpd-110" style="edgeStyle=orthogonalEdgeStyle;rounded=0;orthogonalLoop=1;jettySize=auto;html=1;exitX=1;exitY=0.5;exitDx=0;exitDy=0;entryX=1;entryY=0.75;entryDx=0;entryDy=0;" parent="rGOL3PYCKRUh_CN5jVpd-112" source="rGOL3PYCKRUh_CN5jVpd-108" target="rGOL3PYCKRUh_CN5jVpd-1" edge="1">
          <mxGeometry relative="1" as="geometry">
            <mxPoint x="580" y="410" as="targetPoint" />
            <Array as="points">
              <mxPoint x="580" y="760" />
              <mxPoint x="580" y="60" />
            </Array>
          </mxGeometry>
        </mxCell>
        <mxCell id="rGOL3PYCKRUh_CN5jVpd-108" value="rs:Normal Driving Completion&lt;div&gt;mi:DestArrived-&amp;gt;End&lt;/div&gt;" style="rounded=1;whiteSpace=wrap;html=1;" parent="rGOL3PYCKRUh_CN5jVpd-112" vertex="1">
          <mxGeometry x="220" y="720" width="160" height="80" as="geometry" />
        </mxCell>
        <mxCell id="rGOL3PYCKRUh_CN5jVpd-65" style="edgeStyle=orthogonalEdgeStyle;rounded=0;orthogonalLoop=1;jettySize=auto;html=1;exitX=1;exitY=0.5;exitDx=0;exitDy=0;entryX=0;entryY=0.5;entryDx=0;entryDy=0;movable=1;resizable=1;rotatable=1;deletable=1;editable=1;locked=0;connectable=1;" parent="1" source="rGOL3PYCKRUh_CN5jVpd-66" target="rGOL3PYCKRUh_CN5jVpd-72" edge="1">
          <mxGeometry relative="1" as="geometry" />
        </mxCell>
        <mxCell id="rGOL3PYCKRUh_CN5jVpd-66" value="rs:Error Stop&lt;div&gt;mi:&lt;/div&gt;" style="rounded=1;whiteSpace=wrap;html=1;movable=1;resizable=1;rotatable=1;deletable=1;editable=1;locked=0;connectable=1;container=0;" parent="1" vertex="1">
          <mxGeometry x="1150" y="240" width="160" height="80" as="geometry" />
        </mxCell>
        <mxCell id="rGOL3PYCKRUh_CN5jVpd-67" style="edgeStyle=orthogonalEdgeStyle;rounded=0;orthogonalLoop=1;jettySize=auto;html=1;exitX=1;exitY=0.5;exitDx=0;exitDy=0;entryX=0;entryY=0.5;entryDx=0;entryDy=0;movable=1;resizable=1;rotatable=1;deletable=1;editable=1;locked=0;connectable=1;" parent="1" source="rGOL3PYCKRUh_CN5jVpd-69" target="rGOL3PYCKRUh_CN5jVpd-66" edge="1">
          <mxGeometry relative="1" as="geometry" />
        </mxCell>
        <mxCell id="rGOL3PYCKRUh_CN5jVpd-68" value="No" style="edgeStyle=orthogonalEdgeStyle;rounded=0;orthogonalLoop=1;jettySize=auto;html=1;exitX=0.5;exitY=1;exitDx=0;exitDy=0;entryX=0.5;entryY=1;entryDx=0;entryDy=0;fillColor=#a20025;strokeColor=#6F0000;movable=1;resizable=1;rotatable=1;deletable=1;editable=1;locked=0;connectable=1;" parent="1" source="rGOL3PYCKRUh_CN5jVpd-69" target="rGOL3PYCKRUh_CN5jVpd-75" edge="1">
          <mxGeometry relative="1" as="geometry" />
        </mxCell>
        <mxCell id="rGOL3PYCKRUh_CN5jVpd-69" value="Error ?" style="rhombus;whiteSpace=wrap;html=1;movable=1;resizable=1;rotatable=1;deletable=1;editable=1;locked=0;connectable=1;container=0;" parent="1" vertex="1">
          <mxGeometry x="1030" y="240" width="80" height="80" as="geometry" />
        </mxCell>
        <mxCell id="rGOL3PYCKRUh_CN5jVpd-70" value="No" style="edgeStyle=orthogonalEdgeStyle;rounded=0;orthogonalLoop=1;jettySize=auto;html=1;exitX=0.5;exitY=1;exitDx=0;exitDy=0;entryX=0.5;entryY=1;entryDx=0;entryDy=0;fillColor=#a20025;strokeColor=#6F0000;movable=1;resizable=1;rotatable=1;deletable=1;editable=1;locked=0;connectable=1;" parent="1" source="rGOL3PYCKRUh_CN5jVpd-72" target="rGOL3PYCKRUh_CN5jVpd-66" edge="1">
          <mxGeometry relative="1" as="geometry" />
        </mxCell>
        <mxCell id="rGOL3PYCKRUh_CN5jVpd-71" style="edgeStyle=orthogonalEdgeStyle;rounded=0;orthogonalLoop=1;jettySize=auto;html=1;exitX=0.5;exitY=0;exitDx=0;exitDy=0;entryX=1;entryY=0.5;entryDx=0;entryDy=0;movable=1;resizable=1;rotatable=1;deletable=1;editable=1;locked=0;connectable=1;" parent="1" source="rGOL3PYCKRUh_CN5jVpd-72" target="rGOL3PYCKRUh_CN5jVpd-73" edge="1">
          <mxGeometry relative="1" as="geometry" />
        </mxCell>
        <mxCell id="rGOL3PYCKRUh_CN5jVpd-72" value="Fixed ?" style="rhombus;whiteSpace=wrap;html=1;movable=1;resizable=1;rotatable=1;deletable=1;editable=1;locked=0;connectable=1;container=0;" parent="1" vertex="1">
          <mxGeometry x="1390" y="240" width="80" height="80" as="geometry" />
        </mxCell>
        <mxCell id="rGOL3PYCKRUh_CN5jVpd-73" value="Standby Mode" style="rounded=1;whiteSpace=wrap;html=1;movable=1;resizable=1;rotatable=1;deletable=1;editable=1;locked=0;connectable=1;container=0;" parent="1" vertex="1">
          <mxGeometry x="1150" y="120" width="160" height="80" as="geometry" />
        </mxCell>
        <mxCell id="rGOL3PYCKRUh_CN5jVpd-74" style="edgeStyle=orthogonalEdgeStyle;rounded=0;orthogonalLoop=1;jettySize=auto;html=1;exitX=1;exitY=0.5;exitDx=0;exitDy=0;entryX=0;entryY=0.5;entryDx=0;entryDy=0;movable=1;resizable=1;rotatable=1;deletable=1;editable=1;locked=0;connectable=1;" parent="1" source="rGOL3PYCKRUh_CN5jVpd-75" target="rGOL3PYCKRUh_CN5jVpd-69" edge="1">
          <mxGeometry relative="1" as="geometry" />
        </mxCell>
        <mxCell id="rGOL3PYCKRUh_CN5jVpd-75" value="Any Under-High-Priority States" style="rounded=1;whiteSpace=wrap;html=1;movable=1;resizable=1;rotatable=1;deletable=1;editable=1;locked=0;connectable=1;container=0;" parent="1" vertex="1">
          <mxGeometry x="830" y="240" width="160" height="80" as="geometry" />
        </mxCell>
        <mxCell id="rGOL3PYCKRUh_CN5jVpd-76" value="" style="rounded=1;whiteSpace=wrap;html=1;fillColor=none;movable=1;resizable=1;rotatable=1;deletable=1;editable=1;locked=0;connectable=1;container=0;" parent="1" vertex="1">
          <mxGeometry x="800" y="80" width="720" height="320" as="geometry" />
        </mxCell>
        <mxCell id="rGOL3PYCKRUh_CN5jVpd-18" style="edgeStyle=orthogonalEdgeStyle;rounded=0;orthogonalLoop=1;jettySize=auto;html=1;exitX=1;exitY=0.5;exitDx=0;exitDy=0;entryX=0;entryY=0.5;entryDx=0;entryDy=0;" parent="1" source="rGOL3PYCKRUh_CN5jVpd-3" target="rGOL3PYCKRUh_CN5jVpd-17" edge="1">
          <mxGeometry relative="1" as="geometry" />
        </mxCell>
        <mxCell id="rGOL3PYCKRUh_CN5jVpd-3" value="Manual Driving" style="rounded=1;whiteSpace=wrap;html=1;" parent="1" vertex="1">
          <mxGeometry x="1150" y="640" width="160" height="80" as="geometry" />
        </mxCell>
        <mxCell id="rGOL3PYCKRUh_CN5jVpd-57" style="edgeStyle=orthogonalEdgeStyle;rounded=0;orthogonalLoop=1;jettySize=auto;html=1;exitX=1;exitY=0.5;exitDx=0;exitDy=0;entryX=0;entryY=0.5;entryDx=0;entryDy=0;" parent="1" source="rGOL3PYCKRUh_CN5jVpd-5" target="rGOL3PYCKRUh_CN5jVpd-3" edge="1">
          <mxGeometry relative="1" as="geometry" />
        </mxCell>
        <mxCell id="rGOL3PYCKRUh_CN5jVpd-60" value="No" style="edgeStyle=orthogonalEdgeStyle;rounded=0;orthogonalLoop=1;jettySize=auto;html=1;exitX=0.5;exitY=1;exitDx=0;exitDy=0;entryX=0.5;entryY=1;entryDx=0;entryDy=0;fillColor=#a20025;strokeColor=#6F0000;" parent="1" source="rGOL3PYCKRUh_CN5jVpd-5" target="rGOL3PYCKRUh_CN5jVpd-58" edge="1">
          <mxGeometry relative="1" as="geometry" />
        </mxCell>
        <mxCell id="rGOL3PYCKRUh_CN5jVpd-5" value="Manual ?" style="rhombus;whiteSpace=wrap;html=1;" parent="1" vertex="1">
          <mxGeometry x="1030" y="640" width="80" height="80" as="geometry" />
        </mxCell>
        <mxCell id="rGOL3PYCKRUh_CN5jVpd-20" value="No" style="edgeStyle=orthogonalEdgeStyle;rounded=0;orthogonalLoop=1;jettySize=auto;html=1;exitX=0.5;exitY=1;exitDx=0;exitDy=0;entryX=0.5;entryY=1;entryDx=0;entryDy=0;fillColor=#a20025;strokeColor=#6F0000;" parent="1" source="rGOL3PYCKRUh_CN5jVpd-17" target="rGOL3PYCKRUh_CN5jVpd-3" edge="1">
          <mxGeometry relative="1" as="geometry" />
        </mxCell>
        <mxCell id="rGOL3PYCKRUh_CN5jVpd-56" value="Yes" style="edgeStyle=orthogonalEdgeStyle;rounded=0;orthogonalLoop=1;jettySize=auto;html=1;exitX=0.5;exitY=0;exitDx=0;exitDy=0;entryX=1;entryY=0.5;entryDx=0;entryDy=0;fillColor=#60a917;strokeColor=#2D7600;" parent="1" source="rGOL3PYCKRUh_CN5jVpd-17" target="rGOL3PYCKRUh_CN5jVpd-55" edge="1">
          <mxGeometry relative="1" as="geometry" />
        </mxCell>
        <mxCell id="rGOL3PYCKRUh_CN5jVpd-17" value="End ?" style="rhombus;whiteSpace=wrap;html=1;" parent="1" vertex="1">
          <mxGeometry x="1390" y="640" width="80" height="80" as="geometry" />
        </mxCell>
        <mxCell id="rGOL3PYCKRUh_CN5jVpd-55" value="Resume previouse mode" style="rounded=1;whiteSpace=wrap;html=1;" parent="1" vertex="1">
          <mxGeometry x="1150" y="520" width="160" height="80" as="geometry" />
        </mxCell>
        <mxCell id="rGOL3PYCKRUh_CN5jVpd-59" style="edgeStyle=orthogonalEdgeStyle;rounded=0;orthogonalLoop=1;jettySize=auto;html=1;exitX=1;exitY=0.5;exitDx=0;exitDy=0;entryX=0;entryY=0.5;entryDx=0;entryDy=0;" parent="1" source="rGOL3PYCKRUh_CN5jVpd-58" target="rGOL3PYCKRUh_CN5jVpd-5" edge="1">
          <mxGeometry relative="1" as="geometry" />
        </mxCell>
        <mxCell id="rGOL3PYCKRUh_CN5jVpd-58" value="Any Low-Priority States" style="rounded=1;whiteSpace=wrap;html=1;" parent="1" vertex="1">
          <mxGeometry x="830" y="640" width="160" height="80" as="geometry" />
        </mxCell>
        <mxCell id="rGOL3PYCKRUh_CN5jVpd-62" value="" style="rounded=1;whiteSpace=wrap;html=1;fillColor=none;" parent="1" vertex="1">
          <mxGeometry x="800" y="480" width="720" height="320" as="geometry" />
        </mxCell>
        <mxCell id="iLaorJQl4zZvDn9HZoq8-5" style="edgeStyle=orthogonalEdgeStyle;rounded=0;orthogonalLoop=1;jettySize=auto;html=1;exitX=1;exitY=0.5;exitDx=0;exitDy=0;entryX=0;entryY=0.5;entryDx=0;entryDy=0;" parent="1" source="iLaorJQl4zZvDn9HZoq8-1" target="iLaorJQl4zZvDn9HZoq8-2" edge="1">
          <mxGeometry relative="1" as="geometry" />
        </mxCell>
        <mxCell id="iLaorJQl4zZvDn9HZoq8-6" style="edgeStyle=orthogonalEdgeStyle;rounded=0;orthogonalLoop=1;jettySize=auto;html=1;exitX=1;exitY=0.5;exitDx=0;exitDy=0;entryX=0;entryY=0.5;entryDx=0;entryDy=0;" parent="1" source="iLaorJQl4zZvDn9HZoq8-1" target="iLaorJQl4zZvDn9HZoq8-3" edge="1">
          <mxGeometry relative="1" as="geometry" />
        </mxCell>
        <mxCell id="iLaorJQl4zZvDn9HZoq8-7" style="edgeStyle=orthogonalEdgeStyle;rounded=0;orthogonalLoop=1;jettySize=auto;html=1;exitX=1;exitY=0.5;exitDx=0;exitDy=0;entryX=0;entryY=0.5;entryDx=0;entryDy=0;" parent="1" source="iLaorJQl4zZvDn9HZoq8-1" target="iLaorJQl4zZvDn9HZoq8-4" edge="1">
          <mxGeometry relative="1" as="geometry">
            <mxPoint x="290" y="-290" as="targetPoint" />
          </mxGeometry>
        </mxCell>
        <mxCell id="iLaorJQl4zZvDn9HZoq8-1" value="3 State Priorities" style="rounded=1;whiteSpace=wrap;html=1;" parent="1" vertex="1">
          <mxGeometry x="80" y="-800" width="160" height="120" as="geometry" />
        </mxCell>
        <mxCell id="iLaorJQl4zZvDn9HZoq8-2" value="&lt;div&gt;1. Highest Priority: ERROR_STOP&lt;/div&gt;&lt;div&gt;Purpose: Ensures absolute safety.&lt;/div&gt;&lt;div&gt;&lt;br&gt;&lt;/div&gt;&lt;div&gt;Behavior: All robot operations (autonomous and manual) are immediately halted.&lt;/div&gt;&lt;div&gt;&lt;br&gt;&lt;/div&gt;&lt;div&gt;Recovery: Requires error resolution and explicit reset before any other state (including manual driving) is allowed.&lt;/div&gt;" style="rounded=1;whiteSpace=wrap;html=1;align=left;horizontal=1;verticalAlign=middle;" parent="1" vertex="1">
          <mxGeometry x="440" y="-840" width="250" height="200" as="geometry" />
        </mxCell>
        <mxCell id="iLaorJQl4zZvDn9HZoq8-3" value="&lt;div&gt;2. Middle Priority: MANUAL_DRIVING&lt;/div&gt;&lt;div&gt;Purpose: Allows human intervention and control.&lt;/div&gt;&lt;div&gt;&lt;br&gt;&lt;/div&gt;&lt;div&gt;Behavior: Overrides all autonomous operations, but can only be entered if there is no active error stop.&lt;/div&gt;&lt;div&gt;&lt;br&gt;&lt;/div&gt;&lt;div&gt;Usage: Operator can take over at any time (except during ERROR_STOP).&lt;/div&gt;" style="rounded=1;whiteSpace=wrap;html=1;align=left;horizontal=1;verticalAlign=middle;" parent="1" vertex="1">
          <mxGeometry x="440" y="-600" width="250" height="200" as="geometry" />
        </mxCell>
        <mxCell id="iLaorJQl4zZvDn9HZoq8-4" value="&lt;div&gt;3. Lowest Priority: Remaining States&lt;/div&gt;&lt;div&gt;Includes: STANDBY, NORMAL_DRIVING, OBSTACLE_DETECTED, DRIVING_FAILURE, CANCELLED, NORMAL_DRIVING_COMPLETION.&lt;/div&gt;&lt;div&gt;&lt;br&gt;&lt;/div&gt;&lt;div&gt;Behavior: These states are part of normal autonomous operation and can be preempted by either MANUAL_DRIVING or ERROR_STOP at any time.&lt;/div&gt;" style="rounded=1;whiteSpace=wrap;html=1;align=left;horizontal=1;verticalAlign=middle;" parent="1" vertex="1">
          <mxGeometry x="440" y="-360" width="250" height="200" as="geometry" />
        </mxCell>
        <mxCell id="iLaorJQl4zZvDn9HZoq8-8" value="" style="rounded=1;whiteSpace=wrap;html=1;fillColor=none;movable=1;resizable=1;rotatable=1;deletable=1;editable=1;locked=0;connectable=1;container=0;" parent="1" vertex="1">
          <mxGeometry x="40" y="80" width="680" height="1000" as="geometry" />
        </mxCell>
        <mxCell id="iLaorJQl4zZvDn9HZoq8-9" value="Low Priority" style="rounded=1;whiteSpace=wrap;html=1;" parent="1" vertex="1">
          <mxGeometry x="120" y="120" width="520" height="80" as="geometry" />
        </mxCell>
        <mxCell id="iLaorJQl4zZvDn9HZoq8-10" value="High Priotity" style="rounded=1;whiteSpace=wrap;html=1;" parent="1" vertex="1">
          <mxGeometry x="840" y="120" width="240" height="80" as="geometry" />
        </mxCell>
        <mxCell id="iLaorJQl4zZvDn9HZoq8-11" value="Normal Priotity" style="rounded=1;whiteSpace=wrap;html=1;" parent="1" vertex="1">
          <mxGeometry x="840" y="520" width="240" height="80" as="geometry" />
        </mxCell>
      </root>
    </mxGraphModel>
  </diagram>
  <diagram id="0vzyNLjJtcNaBoGHs9qm" name="Page-3">
    <mxGraphModel dx="1024" dy="597" grid="1" gridSize="10" guides="1" tooltips="1" connect="1" arrows="1" fold="1" page="1" pageScale="1" pageWidth="1654" pageHeight="1169" math="0" shadow="0">
      <root>
        <mxCell id="0" />
        <mxCell id="1" parent="0" />
        <mxCell id="_6gKBwwkTGzCIqRyxsFg-6" value="" style="edgeStyle=orthogonalEdgeStyle;rounded=0;orthogonalLoop=1;jettySize=auto;html=1;" edge="1" parent="1" source="_6gKBwwkTGzCIqRyxsFg-4" target="_6gKBwwkTGzCIqRyxsFg-5">
          <mxGeometry relative="1" as="geometry" />
        </mxCell>
        <mxCell id="_6gKBwwkTGzCIqRyxsFg-4" value="turn on the amr" style="rounded=1;whiteSpace=wrap;html=1;" vertex="1" parent="1">
          <mxGeometry x="100" y="370" width="60" height="60" as="geometry" />
        </mxCell>
        <mxCell id="_6gKBwwkTGzCIqRyxsFg-8" value="" style="edgeStyle=orthogonalEdgeStyle;rounded=0;orthogonalLoop=1;jettySize=auto;html=1;" edge="1" parent="1" source="_6gKBwwkTGzCIqRyxsFg-5" target="_6gKBwwkTGzCIqRyxsFg-7">
          <mxGeometry relative="1" as="geometry" />
        </mxCell>
        <mxCell id="_6gKBwwkTGzCIqRyxsFg-5" value="run &quot;ros2 bag record -a&quot;" style="whiteSpace=wrap;html=1;rounded=1;" vertex="1" parent="1">
          <mxGeometry x="180" y="370" width="80" height="60" as="geometry" />
        </mxCell>
        <mxCell id="_6gKBwwkTGzCIqRyxsFg-10" value="" style="edgeStyle=orthogonalEdgeStyle;rounded=0;orthogonalLoop=1;jettySize=auto;html=1;" edge="1" parent="1" source="_6gKBwwkTGzCIqRyxsFg-7" target="_6gKBwwkTGzCIqRyxsFg-9">
          <mxGeometry relative="1" as="geometry">
            <Array as="points">
              <mxPoint x="350" y="400" />
            </Array>
          </mxGeometry>
        </mxCell>
        <mxCell id="_6gKBwwkTGzCIqRyxsFg-7" value="wait for a duration" style="whiteSpace=wrap;html=1;rounded=1;" vertex="1" parent="1">
          <mxGeometry x="290" y="370" width="80" height="60" as="geometry" />
        </mxCell>
        <mxCell id="_6gKBwwkTGzCIqRyxsFg-15" value="" style="edgeStyle=orthogonalEdgeStyle;rounded=0;orthogonalLoop=1;jettySize=auto;html=1;" edge="1" parent="1" source="_6gKBwwkTGzCIqRyxsFg-9" target="_6gKBwwkTGzCIqRyxsFg-14">
          <mxGeometry relative="1" as="geometry" />
        </mxCell>
        <mxCell id="_6gKBwwkTGzCIqRyxsFg-9" value="do manual driving for a duraiton" style="whiteSpace=wrap;html=1;rounded=1;" vertex="1" parent="1">
          <mxGeometry x="390" y="370" width="80" height="60" as="geometry" />
        </mxCell>
        <mxCell id="_6gKBwwkTGzCIqRyxsFg-17" value="" style="edgeStyle=orthogonalEdgeStyle;rounded=0;orthogonalLoop=1;jettySize=auto;html=1;" edge="1" parent="1" source="_6gKBwwkTGzCIqRyxsFg-14" target="_6gKBwwkTGzCIqRyxsFg-16">
          <mxGeometry relative="1" as="geometry" />
        </mxCell>
        <mxCell id="_6gKBwwkTGzCIqRyxsFg-14" value="stop for a duration" style="whiteSpace=wrap;html=1;rounded=1;" vertex="1" parent="1">
          <mxGeometry x="490" y="370" width="80" height="60" as="geometry" />
        </mxCell>
        <mxCell id="_6gKBwwkTGzCIqRyxsFg-19" style="edgeStyle=orthogonalEdgeStyle;rounded=0;orthogonalLoop=1;jettySize=auto;html=1;exitX=1;exitY=0.5;exitDx=0;exitDy=0;entryX=0;entryY=0.5;entryDx=0;entryDy=0;" edge="1" parent="1" source="_6gKBwwkTGzCIqRyxsFg-16" target="_6gKBwwkTGzCIqRyxsFg-18">
          <mxGeometry relative="1" as="geometry">
            <mxPoint x="910" y="500" as="targetPoint" />
          </mxGeometry>
        </mxCell>
        <mxCell id="_6gKBwwkTGzCIqRyxsFg-16" value="set up automatic driving" style="whiteSpace=wrap;html=1;rounded=1;" vertex="1" parent="1">
          <mxGeometry x="590" y="370" width="80" height="60" as="geometry" />
        </mxCell>
        <mxCell id="_6gKBwwkTGzCIqRyxsFg-21" style="edgeStyle=orthogonalEdgeStyle;rounded=0;orthogonalLoop=1;jettySize=auto;html=1;exitX=1;exitY=0.5;exitDx=0;exitDy=0;entryX=0;entryY=0.5;entryDx=0;entryDy=0;" edge="1" parent="1" source="_6gKBwwkTGzCIqRyxsFg-18" target="_6gKBwwkTGzCIqRyxsFg-20">
          <mxGeometry relative="1" as="geometry" />
        </mxCell>
        <mxCell id="_6gKBwwkTGzCIqRyxsFg-18" value="start automatic driving" style="whiteSpace=wrap;html=1;rounded=1;" vertex="1" parent="1">
          <mxGeometry x="690" y="370" width="80" height="60" as="geometry" />
        </mxCell>
        <mxCell id="_6gKBwwkTGzCIqRyxsFg-23" style="edgeStyle=orthogonalEdgeStyle;rounded=0;orthogonalLoop=1;jettySize=auto;html=1;exitX=1;exitY=0.5;exitDx=0;exitDy=0;entryX=0;entryY=0.5;entryDx=0;entryDy=0;" edge="1" parent="1" source="_6gKBwwkTGzCIqRyxsFg-20" target="_6gKBwwkTGzCIqRyxsFg-22">
          <mxGeometry relative="1" as="geometry" />
        </mxCell>
        <mxCell id="_6gKBwwkTGzCIqRyxsFg-20" value="stop" style="whiteSpace=wrap;html=1;rounded=1;" vertex="1" parent="1">
          <mxGeometry x="790" y="370" width="80" height="60" as="geometry" />
        </mxCell>
        <mxCell id="_6gKBwwkTGzCIqRyxsFg-27" style="edgeStyle=orthogonalEdgeStyle;rounded=0;orthogonalLoop=1;jettySize=auto;html=1;exitX=1;exitY=0.5;exitDx=0;exitDy=0;entryX=0;entryY=0.5;entryDx=0;entryDy=0;" edge="1" parent="1" source="_6gKBwwkTGzCIqRyxsFg-22" target="_6gKBwwkTGzCIqRyxsFg-26">
          <mxGeometry relative="1" as="geometry" />
        </mxCell>
        <mxCell id="_6gKBwwkTGzCIqRyxsFg-22" value="wait for a duration" style="whiteSpace=wrap;html=1;rounded=1;" vertex="1" parent="1">
          <mxGeometry x="890" y="370" width="80" height="60" as="geometry" />
        </mxCell>
        <mxCell id="_6gKBwwkTGzCIqRyxsFg-24" value="" style="rounded=0;whiteSpace=wrap;html=1;fillColor=none;dashed=1;dashPattern=8 8;" vertex="1" parent="1">
          <mxGeometry x="270" y="340" width="710" height="110" as="geometry" />
        </mxCell>
        <mxCell id="_6gKBwwkTGzCIqRyxsFg-29" style="edgeStyle=orthogonalEdgeStyle;rounded=0;orthogonalLoop=1;jettySize=auto;html=1;exitX=1;exitY=0.5;exitDx=0;exitDy=0;entryX=0;entryY=0.5;entryDx=0;entryDy=0;" edge="1" parent="1" source="_6gKBwwkTGzCIqRyxsFg-26" target="_6gKBwwkTGzCIqRyxsFg-28">
          <mxGeometry relative="1" as="geometry" />
        </mxCell>
        <mxCell id="_6gKBwwkTGzCIqRyxsFg-26" value="turn off record&amp;nbsp;" style="rounded=1;whiteSpace=wrap;html=1;" vertex="1" parent="1">
          <mxGeometry x="1000" y="370" width="60" height="60" as="geometry" />
        </mxCell>
        <mxCell id="_6gKBwwkTGzCIqRyxsFg-28" value="end" style="rounded=1;whiteSpace=wrap;html=1;" vertex="1" parent="1">
          <mxGeometry x="1080" y="370" width="60" height="60" as="geometry" />
        </mxCell>
        <mxCell id="_6gKBwwkTGzCIqRyxsFg-30" value="at the begin of each phase here, note the gnss position" style="text;html=1;align=center;verticalAlign=middle;whiteSpace=wrap;rounded=0;" vertex="1" parent="1">
          <mxGeometry x="520" y="300" width="240" height="30" as="geometry" />
        </mxCell>
      </root>
    </mxGraphModel>
  </diagram>
  <diagram id="vr-_TT8PJy7h7_AdA0DC" name="Page-4">
    <mxGraphModel dx="1434" dy="836" grid="1" gridSize="10" guides="1" tooltips="1" connect="1" arrows="1" fold="1" page="1" pageScale="1" pageWidth="1654" pageHeight="1169" math="0" shadow="0">
      <root>
        <mxCell id="0" />
        <mxCell id="1" parent="0" />
      </root>
    </mxGraphModel>
  </diagram>
</mxfile>
